<svg width="17" height="16" viewBox="0 0 17 16" fill="none" xmlns="http://www.w3.org/2000/svg">
  <path d="M8.49993 1.33398C8.76619 1.33398 9.00692 1.49242 9.11223 1.73697L10.7582 5.55907L14.9019 5.94339C15.167 5.96798 15.3921 6.14796 15.4743 6.40119C15.5566 6.65442 15.4803 6.93233 15.2803 7.10806L12.1539 9.85456L13.0689 13.9142C13.1274 14.1739 13.0258 14.4436 12.8104 14.6001C12.5949 14.7566 12.3071 14.7699 12.0781 14.634L8.49993 12.5093L4.92173 14.634C4.69279 14.7699 4.40491 14.7566 4.1895 14.6001C3.97409 14.4436 3.87247 14.1739 3.93101 13.9142L4.84597 9.85456L1.71956 7.10806C1.51953 6.93233 1.44324 6.65442 1.52551 6.40119C1.60779 6.14796 1.83286 5.96798 2.09799 5.94339L6.24166 5.55907L7.88763 1.73697C7.99294 1.49242 8.23367 1.33398 8.49993 1.33398Z" fill="#FEE600"/>
</svg>