<svg width="21" height="20" viewBox="0 0 21 20" fill="none" xmlns="http://www.w3.org/2000/svg">
  <path d="M10.9003 10.833C15.4089 10.8331 17.9833 14.665 17.9833 18.333H16.3163C16.3163 15.3345 14.256 12.5001 10.9003 12.5C7.54446 12.5 5.48332 15.3344 5.48332 18.333H3.81633C3.81633 14.6649 6.39162 10.833 10.9003 10.833ZM10.9003 1.66602C13.2014 1.66619 15.0663 3.53193 15.0663 5.83301C15.0663 8.13403 13.2013 9.99982 10.9003 10C8.59917 10 6.73339 8.13414 6.73332 5.83301C6.73332 3.53182 8.59913 1.66602 10.9003 1.66602ZM10.9003 3.33301C9.5196 3.33301 8.40031 4.4523 8.40031 5.83301C8.40038 7.21366 9.51964 8.33301 10.9003 8.33301C12.2808 8.33283 13.4002 7.21356 13.4003 5.83301C13.4003 4.4524 12.2809 3.33318 10.9003 3.33301Z" fill="#878787"/>
</svg>